<svg width="34" height="34" viewBox="0 0 34 34" fill="none" xmlns="http://www.w3.org/2000/svg">
<path d="M24.027 28.4602C22.6634 29.7821 21.1745 29.5734 19.7413 28.9472C18.2245 28.3072 16.8331 28.2793 15.2329 28.9472C13.2291 29.81 12.1716 29.5595 10.9749 28.4602C4.18448 21.4611 5.18635 10.8023 12.8952 10.4127C14.7737 10.5101 16.0817 11.4424 17.1809 11.5259C18.8229 11.1919 20.3953 10.2318 22.1485 10.357C24.2497 10.524 25.836 11.3589 26.8796 12.8617C22.5381 15.4638 23.5678 21.1828 27.5475 22.783C26.7543 24.8702 25.7246 26.9435 24.0131 28.4741L24.027 28.4602ZM17.0418 10.3292C16.8331 7.2262 19.3516 4.66587 22.2459 4.41541C22.6495 8.00543 18.9899 10.6771 17.0418 10.3292Z" fill="white"/>
</svg>
