<svg width="18" height="19" viewBox="0 0 18 19" fill="none" xmlns="http://www.w3.org/2000/svg">
<g clip-path="url(#clip0_1773_5477)">
<path d="M6.27054 0.855807C4.47206 1.47972 2.92105 2.66392 1.84534 4.23447C0.769623 5.80502 0.2259 7.67913 0.294034 9.58154C0.362168 11.4839 1.03857 13.3144 2.22388 14.8039C3.40919 16.2935 5.04094 17.3637 6.87944 17.8574C8.36996 18.242 9.93158 18.2589 11.4301 17.9066C12.7875 17.6017 14.0426 16.9494 15.0723 16.0138C16.1439 15.0102 16.9218 13.7335 17.3223 12.321C17.7575 10.7849 17.835 9.16946 17.5487 7.59878H9.17866V11.0708H14.026C13.9291 11.6246 13.7215 12.1531 13.4156 12.6248C13.1097 13.0964 12.7118 13.5015 12.2457 13.8158C11.6538 14.2073 10.9865 14.4708 10.2868 14.5892C9.58499 14.7197 8.86515 14.7197 8.16335 14.5892C7.45205 14.4422 6.77918 14.1486 6.18757 13.7272C5.23715 13.0544 4.52352 12.0987 4.14851 10.9963C3.76715 9.87324 3.76715 8.65572 4.14851 7.53268C4.41545 6.74549 4.85674 6.02875 5.43944 5.43596C6.10628 4.74514 6.9505 4.25133 7.87951 4.00873C8.80851 3.76612 9.78639 3.78408 10.7058 4.06065C11.4241 4.28114 12.0809 4.66638 12.624 5.18565C13.1705 4.6419 13.7162 4.09674 14.2609 3.55018C14.5421 3.25628 14.8487 2.97643 15.1257 2.67549C14.2968 1.90413 13.3238 1.30392 12.2626 0.909245C10.33 0.207512 8.21535 0.188653 6.27054 0.855807Z" fill="white"/>
<path d="M6.27053 0.855819C8.21518 0.188212 10.3298 0.206574 12.2626 0.907851C13.324 1.30521 14.2965 1.90831 15.1243 2.68254C14.843 2.98348 14.5463 3.26473 14.2594 3.55723C13.7138 4.10191 13.1687 4.64473 12.624 5.18566C12.0809 4.66639 11.4241 4.28115 10.7058 4.06066C9.78668 3.78313 8.80883 3.76412 7.87959 4.00574C6.95034 4.24735 6.10559 4.74025 5.43803 5.43035C4.85532 6.02314 4.41403 6.73987 4.14709 7.52707L1.23193 5.27004C2.27538 3.20083 4.08205 1.61804 6.27053 0.855819Z" fill="#E33629"/>
<path d="M0.458551 7.50596C0.615237 6.72942 0.875368 5.9774 1.23199 5.27002L4.14714 7.53268C3.76579 8.65572 3.76579 9.87323 4.14714 10.9963C3.17589 11.7463 2.20418 12.5 1.23199 13.2575C0.339231 11.4805 0.066956 9.45573 0.458551 7.50596Z" fill="#F8BD00"/>
<path d="M9.1786 7.59741H17.5486C17.8349 9.1681 17.7575 10.7835 17.3222 12.3196C16.9217 13.7321 16.1439 15.0088 15.0722 16.0124C14.1314 15.2783 13.1864 14.5499 12.2456 13.8158C12.7121 13.5012 13.1102 13.0957 13.4161 12.6235C13.722 12.1514 13.9294 11.6223 14.0259 11.068H9.1786C9.1772 9.9121 9.1786 8.75476 9.1786 7.59741Z" fill="#587DBD"/>
<path d="M1.23047 13.2575C2.20266 12.5075 3.17437 11.7538 4.14562 10.9963C4.52139 12.0991 5.23604 13.0549 6.1875 13.7272C6.78095 14.1466 7.45528 14.4378 8.1675 14.5822C8.8693 14.7127 9.58914 14.7127 10.2909 14.5822C10.9907 14.4638 11.6579 14.2003 12.2498 13.8088C13.1906 14.5428 14.1356 15.2713 15.0764 16.0053C14.0469 16.9415 12.7918 17.5942 11.4342 17.8996C9.93573 18.2518 8.37411 18.2349 6.88359 17.8503C5.70474 17.5356 4.60361 16.9807 3.64922 16.2205C2.63905 15.4185 1.814 14.4078 1.23047 13.2575Z" fill="#319F43"/>
</g>
<defs>
<clipPath id="clip0_1773_5477">
<rect width="18" height="18" fill="white" transform="translate(0 0.263794)"/>
</clipPath>
</defs>
</svg>
