<svg width="241" height="106" viewBox="0 0 241 106" fill="none" xmlns="http://www.w3.org/2000/svg">
<g clip-path="url(#clip0_1768_5333)">
<path d="M135.824 48.392H161.736V62.8442C159.563 72.2762 150.55 81.0175 137.592 81.0175C123.913 81.0175 109.909 70.8036 109.909 49.4295C109.909 32.4672 119.404 17.8386 137.19 17.8386C150.145 17.8386 161.736 25.5423 161.736 39.9093H149.424C149.424 32.9845 143.791 29.1782 136.548 29.1782C126.086 29.1782 120.615 37.314 120.615 49.4295C120.615 65.0075 128.581 70.3746 137.273 70.3746C144.031 70.3746 149.746 67.3442 151.115 61.8919V58.7763H135.827V48.392H135.824Z" fill="white"/>
<path d="M170.506 79.7183V19.1378H181.048V79.7183H170.506Z" fill="white"/>
<path d="M215.088 58.7763H199.799V61.8919C201.169 67.3442 206.881 70.3746 213.642 70.3746C222.333 70.3746 230.3 65.0075 230.3 49.4295C230.3 37.314 224.829 29.1782 214.367 29.1782C207.124 29.1782 201.491 32.9875 201.491 39.9093H189.179C189.179 25.5423 200.767 17.8386 213.724 17.8386C231.508 17.8386 241.006 32.4642 241.006 49.4295C241.006 70.8066 227.004 81.0175 213.323 81.0175C200.365 81.0175 191.351 72.2762 189.179 62.8442V48.392H215.091V58.7763H215.088Z" fill="white"/>
<path d="M54.4411 49.5604V66.4679L40.8301 74.9202L27.2191 83.3694L0 66.4679V32.6589L13.611 24.2097L27.2191 15.7605V32.6589L13.611 41.1081V58.0096L27.2191 66.4679L40.8301 58.0096L27.2191 49.5604L40.8301 41.1081L54.4411 49.5604Z" fill="#FA0101"/>
<path d="M42.5276 37.4601V20.5495L56.1386 12.1003L69.7495 3.65106L96.9687 20.5495V54.3585L83.3577 62.8107L69.7495 71.2599V54.3585L83.3577 45.9093V29.0109L69.7495 20.5495L56.1386 29.0109L69.7495 37.4601L56.1386 45.9093L42.5276 37.4601Z" fill="#FFA500"/>
<path d="M40.8301 0L27.2219 8.44921L40.8301 16.9015L54.441 8.44921L40.8301 0Z" fill="url(#paint0_linear_1768_5333)"/>
<path d="M2.06244 96.0021V100.341C2.88289 99.1542 4.11356 98.5943 5.2141 98.5761H6.82105V100.609H5.51399C3.93816 100.609 2.06244 101.354 2.06244 103.627V105.744H0V93.8784H7.75466V95.999H2.06244V96.0021Z" fill="white"/>
<path d="M18.5393 103.627V105.744H10.3773V93.8784H12.4397V103.627H18.5393Z" fill="white"/>
<path d="M29.1656 103.627V105.744H21.0035V93.8784H29.01V95.999H23.0688V100.338C23.8893 99.1511 25.1199 98.5913 26.2205 98.573H28.1584V100.605H26.5204C24.9445 100.605 23.0688 101.351 23.0688 103.624H29.1684L29.1656 103.627Z" fill="white"/>
<path d="M39.1807 100.033C39.4806 100.371 39.7154 100.797 39.9361 101.305L41.7496 105.747H39.5428L37.9189 101.765C37.6982 101.238 37.3672 100.612 36.6882 100.612H36.3572C35.6641 100.612 35.3472 101.238 35.1265 101.765L33.5026 105.747H31.2959L33.1094 101.305C33.347 100.73 33.613 100.256 33.9921 99.8996C33.7403 99.6106 33.5507 99.2211 33.3612 98.7465L31.5477 93.8814H33.7374L35.4236 98.3753C35.6273 98.9169 35.913 99.0203 36.51 99.0203H36.7788C37.3616 99.0203 37.6473 98.9169 37.851 98.3753L39.5372 93.8814H41.7439L39.9163 98.7465C39.7126 99.3063 39.4749 99.7292 39.175 100.037L39.1807 100.033Z" fill="white"/>
<path d="M44.3693 105.747V93.8814H46.4346V105.747H44.3693Z" fill="white"/>
<path d="M58.1133 102.458C58.1133 104.476 56.6308 106 53.9035 106C52.2485 106 50.6274 105.388 49.6966 104.339V93.8814H53.8413C56.0961 93.8814 57.5616 94.9311 57.5616 97.1187C57.5616 98.1684 57.058 99.0355 56.2376 99.5588C57.4824 100.015 58.1133 101.168 58.1133 102.458ZM51.7619 99.9665C53.117 98.8651 55.403 99.0507 55.403 97.2191C55.403 96.5254 54.9956 95.999 54.144 95.999H51.7647V99.9635L51.7619 99.9665ZM55.9688 102.407C55.9688 101.491 55.2134 100.745 53.9035 100.745C52.5172 100.745 51.7619 101.424 51.7619 102.407C51.7619 103.389 52.5031 104.068 53.9035 104.068C55.2134 104.068 55.9688 103.289 55.9688 102.407Z" fill="white"/>
<path d="M60.9566 105.747V93.8814H63.0219V105.747H60.9566Z" fill="white"/>
<path d="M74.4968 103.627V105.744H66.3348V93.8784H68.3972V103.627H74.4968Z" fill="white"/>
<path d="M76.944 105.747V93.8814H79.0093V105.747H76.944Z" fill="white"/>
<path d="M89.9015 93.8814V96.0021H86.7017V105.747H84.6365V96.0021H81.4367V93.8814H89.9015Z" fill="white"/>
<path d="M101.821 93.8814L100.007 98.3236C99.5177 99.4919 98.9038 100.952 97.6278 101.12V105.747H95.5654V101.12C94.2725 100.949 93.6586 99.4919 93.1861 98.3236L91.3726 93.8814H93.5793L95.2033 97.8641C95.4239 98.3905 95.738 99.0173 96.4311 99.0173H96.7621C97.4383 99.0173 97.7721 98.3905 97.99 97.8641L99.6139 93.8814H101.821Z" fill="white"/>
<path d="M121.373 93.8814V105.747H119.31V97.2222L116.362 103.088H114.407L111.443 97.2222V105.747H109.38V93.8814H112.09L115.386 100.271L118.679 93.8814H121.376H121.373Z" fill="white"/>
<path d="M132.868 103.627V105.744H124.706V93.8784H132.712V95.999H126.771V100.338C127.591 99.1511 128.822 98.5913 129.922 98.573H131.86V100.605H130.222C128.646 100.605 126.771 101.351 126.771 103.624H132.87L132.868 103.627Z" fill="white"/>
<path d="M143.904 103.627V105.744H135.742V93.8784H143.748V95.999H137.807V100.338C138.628 99.1511 139.858 98.5913 140.959 98.573H142.897V100.605H141.259C139.683 100.605 137.807 101.351 137.807 103.624H143.907L143.904 103.627Z" fill="white"/>
<path d="M154.361 93.8814V96.0021H151.161V105.747H149.096V96.0021H145.896V93.8814H154.361Z" fill="white"/>
<path d="M164.891 102.696C164.891 105.102 163.125 106 160.791 106C158.664 106 156.409 104.847 156.409 102.255H158.395C158.395 103.374 159.623 103.882 160.791 103.882C161.96 103.882 162.95 103.526 162.95 102.696C162.95 100.204 156.471 101.85 156.471 97.3743C156.471 94.8338 158.253 93.6289 160.474 93.6289C163.091 93.6289 164.715 94.9342 164.715 97.4595H162.746C162.746 96.2912 161.736 95.7465 160.491 95.7465C159.246 95.7465 158.426 96.2394 158.426 97.1035C158.426 99.8844 164.888 97.9676 164.888 102.696H164.891Z" fill="white"/>
<path d="M172.999 105.747V93.8814H175.064V105.747H172.999Z" fill="white"/>
<path d="M187.801 93.8814V105.747H185.877L180.423 97.7972V105.747H178.374V93.8814H180.298L185.753 101.85V93.8814H187.801Z" fill="white"/>
<path d="M198.399 101.68H200.809C200.809 104.494 198.523 106 195.971 106C192.489 106 190.661 103.137 190.661 99.8144C190.661 96.492 192.616 93.6259 196.099 93.6259C198.654 93.6259 200.812 95.2019 200.812 97.9493H198.402C198.402 96.5924 197.378 95.8469 195.881 95.8469C193.753 95.8469 192.76 97.4412 192.76 99.8144C192.76 102.188 193.753 103.779 195.881 103.779C197.378 103.779 198.402 103.033 198.402 101.676L198.399 101.68Z" fill="white"/>
<path d="M214.7 99.8144C214.7 103.237 212.194 106 208.932 106C205.67 106 203.177 103.237 203.177 99.8144C203.177 96.3915 205.667 93.6259 208.932 93.6259C212.197 93.6259 214.7 96.3885 214.7 99.8144ZM212.542 99.8144C212.542 97.7637 211.28 95.8469 208.932 95.8469C206.584 95.8469 205.322 97.7637 205.322 99.8144C205.322 101.865 206.584 103.779 208.932 103.779C211.28 103.779 212.542 101.862 212.542 99.8144Z" fill="white"/>
<path d="M229.505 93.8814V105.747H227.443V97.2222L224.495 103.088H222.54L219.575 97.2222V105.747H217.513V93.8814H220.223L223.519 100.271L226.812 93.8814H229.508H229.505Z" fill="white"/>
<path d="M241 103.627V105.744H232.838V93.8784H240.844V95.999H234.903V100.338C235.724 99.1511 236.954 98.5913 238.055 98.573H239.993V100.605H238.355C236.779 100.605 234.903 101.351 234.903 103.624H241.003L241 103.627Z" fill="white"/>
</g>
<defs>
<linearGradient id="paint0_linear_1768_5333" x1="27.2219" y1="8.44921" x2="54.441" y2="8.44921" gradientUnits="userSpaceOnUse">
<stop stop-color="#FA0101"/>
<stop offset="1" stop-color="#FFA500"/>
</linearGradient>
<clipPath id="clip0_1768_5333">
<rect width="241" height="106" fill="white"/>
</clipPath>
</defs>
</svg>
